<svg width="127" height="55" viewBox="0 0 127 55" fill="none" xmlns="http://www.w3.org/2000/svg">
<path d="M116.52 15.192L126.264 25.8L116.52 36.408H106.2L115.992 25.8L106.2 15.192H116.52ZM78.4665 42.696V19.752C78.4665 16.2 79.4745 13.464 81.4905 11.544C83.4745 9.624 86.1625 8.664 89.5545 8.664C93.1065 8.664 95.9545 9.672 98.0985 11.688C100.242 13.704 101.314 16.568 101.314 20.28H93.1545C93.1545 18.872 92.8665 17.8 92.2905 17.064C91.7145 16.36 90.8825 16.008 89.7945 16.008C88.8025 16.008 88.0345 16.328 87.4905 16.968C86.9465 17.608 86.6745 18.536 86.6745 19.752V42.696H78.4665ZM59.6445 8.664C62.1085 8.664 64.3165 9.064 66.2685 9.864C68.2205 10.664 69.7885 11.848 70.9725 13.416C72.1245 14.984 72.7325 16.872 72.7965 19.08H64.0605C63.9325 17.832 63.5005 16.872 62.7645 16.2C62.0285 15.56 61.0685 15.24 59.8845 15.24C58.6685 15.24 57.7085 15.512 57.0045 16.056C56.3005 16.632 55.9485 17.416 55.9485 18.408C55.9485 19.24 56.2365 19.928 56.8125 20.472C57.3565 21.016 58.0445 21.464 58.8765 21.816C59.6765 22.168 60.8285 22.568 62.3325 23.016C64.5085 23.688 66.2845 24.36 67.6605 25.032C69.0365 25.704 70.2205 26.696 71.2125 28.008C72.2045 29.32 72.7005 31.032 72.7005 33.144C72.7005 36.28 71.5645 38.728 69.2925 40.488C67.0205 42.28 64.0605 43.176 60.4125 43.176C56.7005 43.176 53.7085 42.28 51.4365 40.488C49.1645 38.728 47.9485 36.264 47.7885 33.096H56.6685C56.7325 34.184 57.1325 35.032 57.8685 35.64C58.6045 36.28 59.5485 36.6 60.7005 36.6C61.6925 36.6 62.4925 36.328 63.1005 35.784C63.7085 35.272 64.0125 34.52 64.0125 33.528C64.0125 32.44 63.5005 31.592 62.4765 30.984C61.4525 30.376 59.8525 29.72 57.6765 29.016C55.5005 28.28 53.7405 27.576 52.3965 26.904C51.0205 26.232 49.8365 25.256 48.8445 23.976C47.8525 22.696 47.3565 21.048 47.3565 19.032C47.3565 17.112 47.8525 15.368 48.8445 13.8C49.8045 12.232 51.2125 10.984 53.0685 10.056C54.9245 9.128 57.1165 8.664 59.6445 8.664ZM24.0172 54.6L36.8812 0.0239997H44.8012L31.9372 54.6H24.0172ZM20.5072 36.408H10.1872L0.443248 25.8L10.1872 15.192H20.5072L10.7152 25.8L20.5072 36.408Z" fill="#F6EAFF"/>
</svg>
